<svg xmlns="http://www.w3.org/2000/svg" viewBox="0 0 1000 550" width="100%" height="100%">
  <defs>
    <!-- Web Fonts -->
    <style>
      /* Base Styles */
      .bg { fill: #070a13; }
      .grid { stroke: rgba(0, 229, 255, 0.05); stroke-width: 1; }
      .blueprint-circle { stroke: rgba(0, 229, 255, 0.08); stroke-width: 1; fill: none; }
      .hud-ticks { stroke: rgba(158, 0, 255, 0.25); stroke-width: 1.5; fill: none; stroke-dasharray: 2 12; }
      
      /* Typography */
      .title { font-family: 'Orbitron', 'Impact', 'Segoe UI Black', sans-serif; font-weight: 700; font-size: 13px; fill: #00E5FF; letter-spacing: 2px; }
      .sub { font-family: 'Outfit', -apple-system, BlinkMacSystemFont, 'Segoe UI', Roboto, sans-serif; font-weight: 400; font-size: 12px; fill: #94A3B8; }
      .brand-title { font-family: 'Orbitron', 'Impact', 'Segoe UI Black', sans-serif; font-weight: 900; font-size: 26px; fill: #FFFFFF; letter-spacing: 4px; }
      .brand-sub { font-family: 'Outfit', -apple-system, BlinkMacSystemFont, 'Segoe UI', Roboto, sans-serif; font-weight: 300; font-size: 15px; fill: #38BDF8; letter-spacing: 3px; }
      
      /* Glowing Filters */
      .cyan-glow { filter: url(#cyan-glow-filter); }
      .purple-glow { filter: url(#purple-glow-filter); }
      .yellow-glow { filter: url(#yellow-glow-filter); }
      .red-glow { filter: url(#red-glow-filter); }

      /* Animation keyframes (12s loop) */
      
      /* Concentric rings rotation */
      .rotate-cw {
        transform-origin: 200px 220px;
        animation: spin-cw 12s infinite linear;
      }
      .rotate-ccw {
        transform-origin: 200px 220px;
        animation: spin-ccw 12s infinite linear;
      }
      @keyframes spin-cw {
        0% { transform: rotate(0deg); }
        100% { transform: rotate(360deg); }
      }
      @keyframes spin-ccw {
        0% { transform: rotate(360deg); }
        100% { transform: rotate(0deg); }
      }

      /* Realistic Eyelids Blinking */
      #top-eyelid {
        animation: top-eyelid-blink 12s infinite ease-in-out;
      }
      #bottom-eyelid {
        animation: bottom-eyelid-blink 12s infinite ease-in-out;
      }
      @keyframes top-eyelid-blink {
        0%, 12%, 14%, 47%, 49%, 72%, 74%, 93%, 95%, 100% { y: -120px; }
        13%, 48%, 73%, 94% { y: 20px; } /* Closed */
      }
      @keyframes bottom-eyelid-blink {
        0%, 12%, 14%, 47%, 49%, 72%, 74%, 93%, 95%, 100% { y: 260px; }
        13%, 48%, 73%, 94% { y: 120px; } /* Closed */
      }

      /* Eye Pupil Direction movement */
      #eye-pupil {
        animation: pupil-look 12s infinite ease-in-out;
      }
      @keyframes pupil-look {
        0%, 14% { transform: translate(0px, 0px); }
        16%, 38% { transform: translate(25px, -15px); } /* look up-right at Mobility */
        40%, 65% { transform: translate(25px, 15px); }  /* look down-right at Home Automation */
        67%, 92% { transform: translate(15px, 0px); }   /* look right at Console / Dash */
        94%, 100% { transform: translate(0px, 0px); }
      }

      /* Circuit Trace Signal Pulses */
      .signal-pulse {
        stroke-dasharray: 40 180;
        stroke-dashoffset: 220;
        animation: pulse-flow 12s infinite linear;
      }
      #pulse-to-mobility { animation-delay: 1.5s; }
      #pulse-to-home { animation-delay: 5.0s; }
      #pulse-to-dash { animation-delay: 7.7s; }
      #pulse-to-ai { animation-delay: 8.8s; }

      @keyframes pulse-flow {
        0% { stroke-dashoffset: 220; opacity: 0; }
        5% { opacity: 1; }
        15%, 100% { stroke-dashoffset: 0; opacity: 0; }
      }

      /* Mobility Controller Card & Icon */
      #mob-card {
        animation: highlight-mob 12s infinite ease-in-out;
      }
      #wc-icon {
        animation: wc-move 12s infinite ease-in-out;
      }
      #wc-speedlines {
        animation: wc-speed 12s infinite ease-in-out;
      }
      @keyframes highlight-mob {
        0%, 14.5%, 38.5%, 100% { stroke: rgba(148, 163, 184, 0.2); fill: #0b0f19; }
        15%, 38% { stroke: #00E5FF; fill: #0d1e2e; }
      }
      @keyframes wc-move {
        0%, 18%, 37%, 100% { transform: translate(0px, 0px); }
        19%, 30% { transform: translate(15px, 0px); } /* Forward movement */
        31%, 36% { transform: translate(22px, 0px); } /* Stop */
      }
      @keyframes wc-speed {
        0%, 18%, 31%, 100% { opacity: 0; }
        19%, 30% { opacity: 0.8; }
      }

      /* Home Automation Card & Icons */
      #home-card {
        animation: highlight-home 12s infinite ease-in-out;
      }
      #bulb-glow {
        animation: bulb-glow-timeline 12s infinite ease-in-out;
      }
      #fan-blade {
        animation: fan-spin-timeline 12s infinite linear;
        transform-origin: 645px 187px;
      }
      @keyframes highlight-home {
        0%, 49.5%, 68.5%, 100% { stroke: rgba(148, 163, 184, 0.2); fill: #0b0f19; }
        50%, 68% { stroke: #9E00FF; fill: #17112c; }
      }
      @keyframes bulb-glow-timeline {
        0%, 52%, 67%, 100% { fill: none; stroke: #CBD5E1; }
        53%, 66% { fill: #FFD700; stroke: #FFD700; filter: url(#yellow-glow-filter); }
      }
      @keyframes fan-spin-timeline {
        0%, 53%, 67%, 100% { transform: rotate(0deg); stroke: #CBD5E1; }
        54%, 66% { transform: rotate(1440deg); stroke: #00E5FF; }
      }

      /* Dashboard Card & Wave */
      #dash-card {
        animation: highlight-dash 12s infinite ease-in-out;
      }
      #dash-wave {
        animation: draw-wave 12s infinite linear;
        stroke-dasharray: 200;
        stroke-dashoffset: 200;
      }
      @keyframes highlight-dash {
        0%, 75.5%, 90.5%, 100% { stroke: rgba(148, 163, 184, 0.2); fill: #0b0f19; }
        76%, 90% { stroke: #00E5FF; fill: #0d1e2e; }
      }
      @keyframes draw-wave {
        0%, 75%, 100% { stroke-dashoffset: 200; stroke: #475569; }
        76%, 89% { stroke-dashoffset: 0; stroke: #00E5FF; filter: url(#cyan-glow-filter); }
      }

      /* AI & QR Card */
      #ai-card {
        animation: highlight-ai 12s infinite ease-in-out;
      }
      #qr-scanline {
        animation: scan-qr 12s infinite ease-in-out;
      }
      #gemini-sparkle {
        animation: sparkle-glow 12s infinite ease-in-out;
      }
      @keyframes highlight-ai {
        0%, 82.5%, 95.5%, 100% { stroke: rgba(148, 163, 184, 0.2); fill: #0b0f19; }
        83%, 95% { stroke: #A855F7; fill: #17112c; }
      }
      @keyframes scan-qr {
        0%, 83%, 95%, 100% { y: 375px; opacity: 0; }
        84%, 94% { y: 435px; opacity: 1; }
      }
      @keyframes sparkle-glow {
        0%, 83%, 95%, 100% { transform: scale(1); opacity: 0.4; }
        84%, 94% { transform: scale(1.3); opacity: 1; filter: url(#purple-glow-filter); }
      }

      /* Floating particles */
      .particle {
        animation: float-around 8s infinite ease-in-out;
        opacity: 0.3;
      }
      @keyframes float-around {
        0%, 100% { transform: translate(0, 0); }
        50% { transform: translate(15px, -15px); }
      }

      /* Status Console Terminal Lines */
      .console-line {
        font-family: 'Fira Code', monospace;
        font-size: 11px;
        opacity: 0;
      }
      #line-1 { animation: show-line-1 12s infinite; }
      #line-2 { animation: show-line-2 12s infinite; }
      #line-3 { animation: show-line-3 12s infinite; }

      @keyframes show-line-1 {
        0%, 12% { opacity: 1; fill: #64748B; } /* Connecting */
        13%, 47% { opacity: 1; fill: #00E5FF; } /* Mobility */
        48%, 72% { opacity: 1; fill: #A855F7; } /* Home Auto */
        73%, 92% { opacity: 1; fill: #EF4444; } /* QR/Gemini */
        93%, 100% { opacity: 1; fill: #10B981; } /* Operational */
      }
      @keyframes show-line-2 {
        0%, 12% { opacity: 0; }
        13%, 47% { opacity: 1; fill: #E2E8F0; }
        48%, 72% { opacity: 1; fill: #E2E8F0; }
        73%, 92% { opacity: 1; fill: #E2E8F0; }
        93%, 100% { opacity: 1; fill: #10B981; }
      }
      @keyframes show-line-3 {
        0%, 22% { opacity: 0; }
        23%, 47% { opacity: 1; fill: #10B981; }
        48%, 72% { opacity: 1; fill: #10B981; }
        73%, 92% { opacity: 1; fill: #10B981; }
        93%, 100% { opacity: 1; fill: #10B981; }
      }

      /* Intro / Outro Out-Splash Screen (Fades in from 10.8s to 12s) */
      #outro {
        animation: outro-fade-screen 12s infinite ease-in-out;
        opacity: 0;
      }
      @keyframes outro-fade-screen {
        0%, 90% { opacity: 0; visibility: hidden; }
        92%, 99% { opacity: 1; visibility: visible; }
      }
    </style>

    <!-- Glowing Filters definitions -->
    <filter id="cyan-glow-filter" x="-20%" y="-20%" width="140%" height="140%">
      <feGaussianBlur stdDeviation="5" result="blur" />
      <feMerge>
        <feMergeNode in="blur" />
        <feMergeNode in="SourceGraphic" />
      </feMerge>
    </filter>

    <filter id="purple-glow-filter" x="-20%" y="-20%" width="140%" height="140%">
      <feGaussianBlur stdDeviation="6" result="blur" />
      <feMerge>
        <feMergeNode in="blur" />
        <feMergeNode in="SourceGraphic" />
      </feMerge>
    </filter>

    <filter id="yellow-glow-filter" x="-20%" y="-20%" width="140%" height="140%">
      <feGaussianBlur stdDeviation="4" result="blur" />
      <feMerge>
        <feMergeNode in="blur" />
        <feMergeNode in="SourceGraphic" />
      </feMerge>
    </filter>

    <filter id="red-glow-filter" x="-20%" y="-20%" width="140%" height="140%">
      <feGaussianBlur stdDeviation="4" result="blur" />
      <feMerge>
        <feMergeNode in="blur" />
        <feMergeNode in="SourceGraphic" />
      </feMerge>
    </filter>

    <!-- Eyelid shape clipping -->
    <clipPath id="eye-sclera-clip">
      <path d="M 90 220 Q 200 110 310 220 Q 200 330 90 220 Z" />
    </clipPath>
  </defs>

  <!-- 1. Background Scene -->
  <rect class="bg" width="100%" height="100%" />
  
  <!-- Technical blueprint lines and grid -->
  <g>
    <!-- horizontal grid -->
    <path class="grid" d="M 0 50 H 1000 M 0 100 H 1000 M 0 150 H 1000 M 0 200 H 1000 M 0 250 H 1000 M 0 300 H 1000 M 0 350 H 1000 M 0 400 H 1000 M 0 450 H 1000 M 0 500 H 1000" />
    <!-- vertical grid -->
    <path class="grid" d="M 50 0 V 550 M 100 0 V 550 M 150 0 V 550 M 200 0 V 550 M 250 0 V 550 M 300 0 V 550 M 350 0 V 550 M 400 0 V 550 M 450 0 V 550 M 500 0 V 550 M 550 0 V 550 M 600 0 V 550 M 650 0 V 550 M 700 0 V 550 M 750 0 V 550 M 800 0 V 550 M 850 0 V 550 M 900 0 V 550 M 950 0 V 550" />
  </g>

  <!-- Glowing background circuit pathways -->
  <g fill="none" stroke-linecap="round">
    <!-- Trace to Card A (Mobility) -->
    <path d="M 310 220 H 380 V 75 H 450" stroke="rgba(0, 229, 255, 0.15)" stroke-width="2" />
    <path d="M 310 220 H 380 V 75 H 450" stroke="#00E5FF" stroke-width="2" class="signal-pulse glow-cyan" id="pulse-to-mobility" />

    <!-- Trace to Card B (Home Automation) -->
    <path d="M 310 220 H 400 V 185 H 450" stroke="rgba(158, 0, 255, 0.15)" stroke-width="2" />
    <path d="M 310 220 H 400 V 185 H 450" stroke="#9E00FF" stroke-width="2" class="signal-pulse glow-purple" id="pulse-to-home" />

    <!-- Trace to Card C (Dashboard) -->
    <path d="M 310 220 H 400 V 295 H 450" stroke="rgba(0, 229, 255, 0.15)" stroke-width="2" />
    <path d="M 310 220 H 400 V 295 H 450" stroke="#00E5FF" stroke-width="2" class="signal-pulse glow-cyan" id="pulse-to-dash" />

    <!-- Trace to Card D (Gemini AI / Medical QR) -->
    <path d="M 310 220 H 380 V 405 H 450" stroke="rgba(158, 0, 255, 0.15)" stroke-width="2" />
    <path d="M 310 220 H 380 V 405 H 450" stroke="#A855F7" stroke-width="2" class="signal-pulse glow-purple" id="pulse-to-ai" />
  </g>

  <!-- HUD rings surrounding the EOG Eye sensor -->
  <circle cx="200" cy="220" r="145" class="blueprint-circle" />
  <circle cx="200" cy="220" r="150" class="hud-ticks rotate-cw" />
  <circle cx="200" cy="220" r="120" class="blueprint-circle" stroke-dasharray="10 30" stroke="rgba(0, 229, 255, 0.2)" />
  <circle cx="200" cy="220" r="115" class="blueprint-circle rotate-ccw" stroke-dasharray="40 5" stroke="rgba(158, 0, 255, 0.15)" />

  <!-- Floating Particles -->
  <g fill="#00E5FF">
    <circle cx="100" cy="80" r="1.5" class="particle" />
    <circle cx="250" cy="60" r="1" class="particle" style="animation-delay: 2s;" />
    <circle cx="340" cy="120" r="2" class="particle" style="animation-delay: 4s;" />
    <circle cx="80" cy="350" r="1.5" class="particle" style="animation-delay: 1s;" />
    <circle cx="290" cy="380" r="1" class="particle" style="animation-delay: 3s;" />
  </g>

  <!-- 2. Futuristic Cybernetic Realistic Eye -->
  <g id="eog-eye-sensor-group">
    <!-- Physical Electrode Leads -->
    <circle cx="65" cy="220" r="4.5" fill="#00E5FF" class="cyan-glow" />
    <path d="M 65 220 H 90" stroke="#00E5FF" stroke-width="1.5" />
    <text x="35" y="200" font-family="'Outfit', sans-serif" font-size="9" fill="#00E5FF" font-weight="600">ELECTRODE L (+)</text>

    <circle cx="335" cy="220" r="4.5" fill="#00E5FF" class="cyan-glow" />
    <path d="M 335 220 H 310" stroke="#00E5FF" stroke-width="1.5" />
    <text x="310" y="200" font-family="'Outfit', sans-serif" font-size="9" fill="#00E5FF" font-weight="600">ELECTRODE R (-)</text>

    <!-- Outer Eyeball Frame Outline -->
    <path d="M 90 220 Q 200 110 310 220 Q 200 330 90 220 Z" fill="none" stroke="rgba(0, 229, 255, 0.4)" stroke-width="3" />

    <!-- Clipped Internal Eyeball Components -->
    <g clip-path="url(#eye-sclera-clip)">
      <rect x="80" y="100" width="240" height="240" fill="#090f22" />
      <path d="M 90 220 Q 200 110 310 220 Q 200 330 90 220 Z" fill="#0c1328" />

      <!-- Iris & Pupil -->
      <g id="eye-pupil">
        <!-- Outer Iris Structure -->
        <circle cx="200" cy="220" r="50" fill="none" stroke="#9E00FF" stroke-width="3.5" class="purple-glow" />
        <circle cx="200" cy="220" r="42" fill="none" stroke="#00E5FF" stroke-width="1" stroke-dasharray="3 5" />
        
        <!-- Iris Gradient Ring -->
        <circle cx="200" cy="220" r="30" fill="none" stroke="#00E5FF" stroke-width="4" class="cyan-glow" />
        
        <!-- Center Pupil -->
        <circle cx="200" cy="220" r="18" fill="#070a13" />
        <!-- Glowing Core -->
        <circle cx="200" cy="220" r="8" fill="#FFFFFF" class="cyan-glow" />
        <!-- Light reflection flare -->
        <circle cx="194" cy="214" r="3.5" fill="#FFFFFF" opacity="0.8" />
      </g>

      <!-- Blinking Eyelid Layers -->
      <rect id="top-eyelid" x="80" y="-120" width="240" height="150" fill="#070a13" stroke="#00E5FF" stroke-width="2" class="cyan-glow" />
      <rect id="bottom-eyelid" x="80" y="260" width="240" height="150" fill="#070a13" stroke="#00E5FF" stroke-width="2" class="cyan-glow" />
    </g>
  </g>

  <!-- 3. Actuator Module Cards (Right Sidebar) -->

  <!-- CARD 1: Mobility Control Module (x=450, y=30) -->
  <g id="mobility-card-group" transform="translate(480, 30)">
    <rect id="mob-card" width="450" height="90" rx="10" stroke="rgba(148, 163, 184, 0.2)" stroke-width="1.5" fill="#0b0f19" />
    <text x="20" y="25" class="title">MOBILITY CONTROLLER</text>
    
    <!-- Moving Wheelchair Icon Group -->
    <g id="wc-icon" transform="translate(40, 35)">
      <!-- Speed lines -->
      <g id="wc-speedlines" stroke="#00E5FF" stroke-width="2" stroke-linecap="round">
        <line x1="-15" y1="8" x2="-2" y2="8" />
        <line x1="-20" y1="20" x2="-5" y2="20" />
      </g>
      <!-- Frame -->
      <path d="M 12 5 L 8 22 H 25" stroke="#CBD5E1" stroke-width="2.5" fill="none" stroke-linejoin="round" />
      <path d="M 8 13 H 20" stroke="#CBD5E1" stroke-width="2.5" />
      <circle cx="12" cy="27" r="7" stroke="#CBD5E1" stroke-width="2.5" fill="none" />
      <circle cx="24" cy="30" r="3.5" stroke="#CBD5E1" stroke-width="1.5" fill="none" />
    </g>
    <text x="120" y="52" class="sub" font-size="13" font-weight="600" fill="#F8FAFC">ESP-NOW Wireless Node</text>
    <text x="120" y="68" class="sub" font-size="11">Forward direction pulse: Active on 1 Blink</text>
    <rect x="370" y="32" width="60" height="20" rx="4" fill="rgba(0, 229, 255, 0.1)" stroke="#00E5FF" stroke-width="1" />
    <text x="400" y="45" font-family="'Orbitron', sans-serif" font-size="9" fill="#00E5FF" text-anchor="middle" font-weight="600">CHASSIS</text>
  </g>

  <!-- CARD 2: Home Automation Module (x=450, y=140) -->
  <g id="home-card-group" transform="translate(480, 135)">
    <rect id="home-card" width="450" height="90" rx="10" stroke="rgba(148, 163, 184, 0.2)" stroke-width="1.5" fill="#0b0f19" />
    <text x="20" y="25" class="title" fill="#9E00FF">HOME AUTOMATION HUB</text>
    
    <!-- Smart Light Bulb -->
    <path id="bulb-glow" d="M 40 45 A 7 7 0 1 1 52 45 Q 52 51 49 54 V 58 H 43 V 54 Q 40 51 40 45 Z" stroke="#CBD5E1" stroke-width="2" fill="none" />
    <text x="35" y="75" font-family="'Outfit', sans-serif" font-size="9" fill="#94A3B8" text-anchor="middle">Bulb</text>

    <!-- Smart Fan Blade -->
    <g transform="translate(100, 48)">
      <line x1="645" y1="187" x2="645" y2="187" /> <!-- dummy -->
      <path id="fan-blade" d="M 0 -12 V 12 M -12 0 H 12" stroke="#CBD5E1" stroke-width="2" />
      <circle cx="0" cy="0" r="3" fill="#CBD5E1" />
    </g>
    <text x="100" y="75" font-family="'Outfit', sans-serif" font-size="9" fill="#94A3B8" text-anchor="middle">Fan Node</text>

    <!-- Home hub outline -->
    <path id="ha-home-glow" d="M 155 58 V 46 L 167 36 L 179 46 V 58 Z" stroke="#CBD5E1" stroke-width="2" fill="none" stroke-linejoin="round" />
    <text x="167" y="75" font-family="'Outfit', sans-serif" font-size="9" fill="#94A3B8" text-anchor="middle">Smart Home</text>

    <text x="210" y="52" class="sub" font-size="13" font-weight="600" fill="#F8FAFC">Multi-Channel Relay</text>
    <text x="210" y="68" class="sub" font-size="11">Listening on NodeMCU ESP8266</text>
  </g>

  <!-- CARD 3: Operations Dashboard (x=450, y=250) -->
  <g id="dash-card-group" transform="translate(480, 240)">
    <rect id="dash-card" width="450" height="90" rx="10" stroke="rgba(148, 163, 184, 0.2)" stroke-width="1.5" fill="#0b0f19" />
    <text x="20" y="25" class="title">HIGH-FIDELITY DASHBOARD</text>
    
    <!-- Mini screen displaying rolling EOG wave -->
    <rect x="20" y="38" width="180" height="38" rx="4" fill="#04060f" stroke="rgba(226, 232, 240, 0.08)" stroke-width="1" />
    <path id="dash-wave" d="M 25 57 H 55 L 62 42 L 70 70 L 76 57 H 105 L 112 45 L 120 72 L 127 57 H 195" fill="none" stroke="#475569" stroke-width="2" stroke-linejoin="round" />
    
    <text x="220" y="52" class="sub" font-size="13" font-weight="600" fill="#F8FAFC">Real-Time Waveform Ingest</text>
    <text x="220" y="68" class="sub" font-size="11">React Dashboard running at 60 FPS</text>
  </g>

  <!-- CARD 4: Gemini AI & Medical QR (x=450, y=360) -->
  <g id="ai-card-group" transform="translate(480, 345)">
    <rect id="ai-card" width="450" height="90" rx="10" stroke="rgba(148, 163, 184, 0.2)" stroke-width="1.5" fill="#0b0f19" />
    <text x="20" y="25" class="title" fill="#A855F7">COGNITIVE COMPANION &amp; SOS</text>
    
    <!-- Medical QR block -->
    <g transform="translate(30, 36)" stroke="#CBD5E1" stroke-width="1.5" fill="none" stroke-linejoin="round">
      <rect x="0" y="0" width="42" height="42" rx="3" />
      <rect x="3" y="3" width="10" height="10" />
      <rect x="29" y="3" width="10" height="10" />
      <rect x="3" y="29" width="10" height="10" />
      <!-- Scanning glowing red line -->
      <line id="qr-scanline" x1="-2" y1="0" x2="44" y2="0" stroke="#EF4444" stroke-width="1.5" opacity="0" />
    </g>

    <!-- Gemini Sparkle symbol -->
    <g transform="translate(110, 56)">
      <path id="gemini-sparkle" d="M 0 -16 Q 0 0 16 0 Q 0 0 0 16 Q 0 0 -16 0 Q 0 0 0 -16 Z" fill="#9E00FF" />
    </g>

    <text x="160" y="52" class="sub" font-size="13" font-weight="600" fill="#F8FAFC">Gemini 2.5 Flash API</text>
    <text x="160" y="68" class="sub" font-size="11">Generates clinical diagnostic summaries</text>
  </g>

  <!-- 4. Terminal Style Status Console (Bottom Left) -->
  <g id="status-console-group" transform="translate(50, 390)">
    <rect width="380" height="110" rx="8" fill="#040712" stroke="rgba(0, 229, 255, 0.2)" stroke-width="1.5" class="cyan-glow" />
    
    <!-- Terminal Headers -->
    <path d="M 0 25 H 380" stroke="rgba(0, 229, 255, 0.15)" stroke-width="1.5" />
    <circle cx="15" cy="13" r="3.5" fill="#EF4444" />
    <circle cx="28" cy="13" r="3.5" fill="#F59E0B" />
    <circle cx="41" cy="13" r="3.5" fill="#10B981" />
    <text x="60" y="16" font-family="'Orbitron', sans-serif" font-weight="700" font-size="9" fill="#64748B" letter-spacing="1.5px">NEURONODE TELEMETRY MONITOR</text>

    <!-- Text Terminal logs -->
    <g transform="translate(15, 45)">
      <!-- Line 1: Main Status -->
      <text x="0" y="10" id="line-1" class="console-line">&gt; Initializing NeuroNode Core...</text>
      <!-- Line 2: Action Log -->
      <text x="0" y="28" id="line-2" class="console-line">&gt; Loading Electrode Signals...</text>
      <!-- Line 3: Final confirmation -->
      <text x="0" y="46" id="line-3" class="console-line">&gt; Ready.</text>
    </g>
  </g>

  <!-- 5. FINAL BRANDING SPLASH OUTRO SCREEN (Fades in from 10.8s to 12s) -->
  <g id="outro">
    <rect width="1000" height="550" fill="#070a13" />
    <!-- Outro Grid -->
    <g>
      <path class="grid" d="M 0 50 H 1000 M 0 100 H 1000 M 0 150 H 1000 M 0 200 H 1000 M 0 250 H 1000 M 0 300 H 1000 M 0 350 H 1000 M 0 400 H 1000 M 0 450 H 1000 M 0 500 H 1000" />
      <path class="grid" d="M 50 0 V 550 M 100 0 V 550 M 150 0 V 550 M 200 0 V 550 M 250 0 V 550 M 300 0 V 550 M 350 0 V 550 M 400 0 V 550 M 450 0 V 550 M 500 0 V 550 M 550 0 V 550 M 600 0 V 550 M 650 0 V 550 M 700 0 V 550 M 750 0 V 550 M 800 0 V 550 M 850 0 V 550 M 900 0 V 550 M 950 0 V 550" />
    </g>
    
    <!-- Central Brand Logo -->
    <g transform="translate(500, 240)" text-anchor="middle">
      <circle cx="0" cy="-55" r="50" fill="none" stroke="#00E5FF" stroke-width="4.5" class="cyan-glow" />
      <circle cx="0" cy="-55" r="35" fill="none" stroke="#9E00FF" stroke-width="3" class="purple-glow" />
      <polygon points="0,-72 15,-58 0,-36 -15,-58" fill="#FFFFFF" class="cyan-glow" />

      <text x="0" y="35" class="brand-title">NEURONODE AI</text>
      <text x="0" y="65" class="brand-sub">ORYEN DYNAMICS</text>
      <text x="0" y="95" font-family="'Outfit', sans-serif" font-size="14" fill="#94A3B8" italic="true">"Transforming Vision into Intelligent Action"</text>
    </g>
  </g>
</svg>
